<svg xmlns="http://www.w3.org/2000/svg" width="77.82" height="77.741" viewBox="0 0 77.82 77.741">
  <g id="Group_89" data-name="Group 89" transform="translate(-516.796 -516.824)">
    <g id="Group_68" data-name="Group 68" transform="translate(516.796 516.827)">
      <path id="Path_3618" data-name="Path 3618" d="M582.243,594.6H529.159A12.373,12.373,0,0,1,516.8,582.243V529.211a12.37,12.37,0,0,1,12.363-12.35h53.083a12.37,12.37,0,0,1,12.364,12.35v53.032A12.373,12.373,0,0,1,582.243,594.6Zm-53.083-74.664a9.294,9.294,0,0,0-9.289,9.279v53.032a9.3,9.3,0,0,0,9.289,9.282h53.083a9.3,9.3,0,0,0,9.29-9.282V529.211a9.3,9.3,0,0,0-9.29-9.279Z" transform="translate(-516.796 -516.861)" fill="#aa1f24"/>
    </g>
    <g id="Group_69" data-name="Group 69" transform="translate(554.27 543.516)">
      <path id="Path_3619" data-name="Path 3619" d="M982.4,862.9a1.439,1.439,0,0,1-1.44-1.44V839.984a1.44,1.44,0,0,1,2.88,0v21.478A1.439,1.439,0,0,1,982.4,862.9Z" transform="translate(-980.96 -838.544)" fill="#aa1f24"/>
    </g>
    <g id="Group_70" data-name="Group 70" transform="translate(554.27 582.06)">
      <path id="Path_3620" data-name="Path 3620" d="M982.4,1329.9a1.439,1.439,0,0,1-1.44-1.44v-9.625a1.44,1.44,0,1,1,2.88,0v9.625A1.439,1.439,0,0,1,982.4,1329.9Z" transform="translate(-980.96 -1317.396)" fill="#aa1f24"/>
    </g>
    <g id="Group_71" data-name="Group 71" transform="translate(554.27 516.824)">
      <path id="Path_3621" data-name="Path 3621" d="M982.4,529.326a1.439,1.439,0,0,1-1.44-1.44v-9.623a1.44,1.44,0,0,1,2.88,0v9.623A1.439,1.439,0,0,1,982.4,529.326Z" transform="translate(-980.96 -516.824)" fill="#aa1f24"/>
    </g>
    <g id="Group_72" data-name="Group 72" transform="translate(516.802 554.254)">
      <path id="Path_3622" data-name="Path 3622" d="M527.932,983.793H518.31a1.44,1.44,0,1,1,0-2.88h9.623a1.44,1.44,0,0,1,0,2.88Z" transform="translate(-516.87 -980.913)" fill="#aa1f24"/>
    </g>
    <g id="Group_73" data-name="Group 73" transform="translate(543.531 554.254)">
      <path id="Path_3623" data-name="Path 3623" d="M861.506,983.793H840.03a1.44,1.44,0,1,1,0-2.88h21.477a1.44,1.44,0,0,1,0,2.88Z" transform="translate(-838.59 -980.913)" fill="#aa1f24"/>
    </g>
    <g id="Group_74" data-name="Group 74" transform="translate(582.114 554.254)">
      <path id="Path_3624" data-name="Path 3624" d="M1328.523,983.793H1318.9a1.44,1.44,0,1,1,0-2.88h9.623a1.44,1.44,0,0,1,0,2.88Z" transform="translate(-1317.461 -980.913)" fill="#aa1f24"/>
    </g>
    <g id="Group_75" data-name="Group 75" transform="translate(554.815 525.308)">
      <path id="Path_3625" data-name="Path 3625" d="M986.624,649.1a9.971,9.971,0,0,1-4.946-1.33,1.44,1.44,0,0,1,1.434-2.5,7.022,7.022,0,1,0,0-12.148,1.44,1.44,0,0,1-1.434-2.5,9.9,9.9,0,1,1,4.946,18.472Z" transform="translate(-980.955 -629.295)" fill="#aa1f24"/>
    </g>
    <g id="Group_76" data-name="Group 76" transform="translate(541.033 566.279)">
      <path id="Path_3626" data-name="Path 3626" d="M822.6,1127.986a9.9,9.9,0,1,1,4.946-18.472,1.439,1.439,0,1,1-1.431,2.5,7.1,7.1,0,0,0-3.515-.948,7.022,7.022,0,1,0,3.512,13.093,1.44,1.44,0,0,1,1.437,2.5A9.947,9.947,0,0,1,822.6,1127.986Z" transform="translate(-812.7 -1108.184)" fill="#aa1f24"/>
    </g>
    <g id="Group_77" data-name="Group 77" transform="translate(566.33 554.79)">
      <path id="Path_3627" data-name="Path 3627" d="M1118.113,996.465a9.913,9.913,0,0,1-9.9-9.9,9.813,9.813,0,0,1,1.335-4.955,1.439,1.439,0,1,1,2.486,1.451,6.952,6.952,0,0,0-.942,3.5,7.021,7.021,0,1,0,14.043,0,6.951,6.951,0,0,0-.942-3.5,1.439,1.439,0,1,1,2.486-1.451,9.812,9.812,0,0,1,1.336,4.955A9.913,9.913,0,0,1,1118.113,996.465Z" transform="translate(-1108.212 -980.894)" fill="#aa1f24"/>
    </g>
    <g id="Group_78" data-name="Group 78" transform="translate(525.285 541.027)">
      <path id="Path_3628" data-name="Path 3628" d="M646.564,828.242a1.423,1.423,0,0,1-.726-.2,1.439,1.439,0,0,1-.516-1.968,6.952,6.952,0,0,0,.942-3.5,7.022,7.022,0,0,0-14.043,0,6.953,6.953,0,0,0,.942,3.5,1.439,1.439,0,1,1-2.486,1.451,9.9,9.9,0,1,1,17.131,0A1.438,1.438,0,0,1,646.564,828.242Z" transform="translate(-629.342 -812.672)" fill="#aa1f24"/>
    </g>
  </g>
</svg>
